<svg xmlns="http://www.w3.org/2000/svg" xmlns:xlink="http://www.w3.org/1999/xlink" contentStyleType="text/css" data-diagram-type="DESCRIPTION" height="444px" preserveAspectRatio="none" style="width:850px;height:444px;background:#FFFFFF;" version="1.1" viewBox="0 0 850 444" width="850px" zoomAndPan="magnify"><title>XYZ Work Board r2 public product experience</title><defs/><g><text fill="#000000" font-family="sans-serif" font-size="14" font-weight="bold" lengthAdjust="spacing" textLength="315.7548" x="260.4504" y="24.9659">XYZ Work Board r2 public product experience</text><!--cluster XYZ Work Board r2--><g class="cluster" data-entity="XYZ Work Board r2" data-source-line="7" data-uid="ent0003" id="cluster_XYZ Work Board r2"><path d="M292.02,121.1379 L423.2335,121.1379 A3.75,3.75 0 0 1 425.7335,123.6379 L432.7335,146.2058 L433.02,146.2058 A2.5,2.5 0 0 1 435.52,148.7058 L435.52,434.6379 A2.5,2.5 0 0 1 433.02,437.1379 L292.02,437.1379 A2.5,2.5 0 0 1 289.52,434.6379 L289.52,123.6379 A2.5,2.5 0 0 1 292.02,121.1379" fill="none" style="stroke:#000000;stroke-width:1.5;"/><line style="stroke:#000000;stroke-width:1.5;" x1="289.52" x2="432.7335" y1="146.2058" y2="146.2058"/><text fill="#000000" font-family="sans-serif" font-size="14" font-weight="bold" lengthAdjust="spacing" textLength="130.2135" x="293.52" y="138.1039">XYZ Work Board r2</text></g><!--entity Keys--><g class="entity" data-entity="Keys" data-source-line="8" data-uid="ent0004" id="entity_Keys"><rect fill="#F1F1F1" height="39.0679" rx="2.5" ry="2.5" style="stroke:#181818;stroke-width:0.5;" width="68.8738" x="327.58" y="233.6079"/><text fill="#000000" font-family="sans-serif" font-size="14" lengthAdjust="spacing" textLength="48.8738" x="337.58" y="258.5739">47 keys</text></g><!--entity Encoder--><g class="entity" data-entity="Encoder" data-source-line="9" data-uid="ent0005" id="entity_Encoder"><rect fill="#F1F1F1" height="39.0679" rx="2.5" ry="2.5" style="stroke:#181818;stroke-width:0.5;" width="73.9138" x="325.06" y="307.6079"/><text fill="#000000" font-family="sans-serif" font-size="14" lengthAdjust="spacing" textLength="53.9138" x="335.06" y="332.5739">Encoder</text></g><!--entity Touch--><g class="entity" data-entity="Touch" data-source-line="10" data-uid="ent0006" id="entity_Touch"><rect fill="#F1F1F1" height="39.0679" rx="2.5" ry="2.5" style="stroke:#181818;stroke-width:0.5;" width="110.6776" x="306.68" y="381.6079"/><text fill="#000000" font-family="sans-serif" font-size="14" lengthAdjust="spacing" textLength="90.6776" x="316.68" y="406.5739">Touch control</text></g><!--entity LEDs--><g class="entity" data-entity="LEDs" data-source-line="11" data-uid="ent0007" id="entity_LEDs"><rect fill="#F1F1F1" height="39.0679" rx="2.5" ry="2.5" style="stroke:#181818;stroke-width:0.5;" width="108.8576" x="307.59" y="159.6079"/><text fill="#000000" font-family="sans-serif" font-size="14" lengthAdjust="spacing" textLength="88.8576" x="317.59" y="184.5739">LED feedback</text></g><!--entity User--><g class="entity" data-entity="User" data-source-line="5" data-uid="ent0002" id="entity_User"><ellipse cx="21.3089" cy="260.1079" fill="#F1F1F1" rx="8" ry="8" style="stroke:#181818;stroke-width:0.5;"/><path d="M21.3089,268.1079 L21.3089,295.1079 M8.3089,276.1079 L34.3089,276.1079 M21.3089,295.1079 L8.3089,310.1079 M21.3089,295.1079 L34.3089,310.1079" fill="none" style="stroke:#181818;stroke-width:0.5;"/><text fill="#000000" font-family="sans-serif" font-size="14" lengthAdjust="spacing" textLength="30.6179" x="6" y="326.5739">User</text></g><!--entity Input--><g class="entity" data-entity="Input" data-source-line="14" data-uid="ent0008" id="entity_Input"><rect fill="#F1F1F1" height="39.0679" rx="2.5" ry="2.5" style="stroke:#181818;stroke-width:0.5;" width="144.4875" x="96.62" y="108.6079"/><text fill="#000000" font-family="sans-serif" font-size="14" lengthAdjust="spacing" textLength="124.4875" x="106.62" y="133.5739">Work Louder Input</text></g><!--entity Config--><g class="entity" data-entity="Config" data-source-line="15" data-uid="ent0009" id="entity_Config"><rect fill="#F1F1F1" height="58.1358" rx="2.5" ry="2.5" style="stroke:#181818;stroke-width:0.5;" width="119.4976" x="302.27" y="47.0679"/><text fill="#000000" font-family="sans-serif" font-size="14" lengthAdjust="spacing" textLength="99.4976" x="312.27" y="72.0339">Profiles, layers,</text><text fill="#000000" font-family="sans-serif" font-size="14" lengthAdjust="spacing" textLength="75.8237" x="312.27" y="91.1018">and actions</text></g><!--entity Actions--><g class="entity" data-entity="Actions" data-source-line="16" data-uid="ent0010" id="entity_Actions"><rect fill="#F1F1F1" height="58.1358" rx="2.5" ry="2.5" style="stroke:#181818;stroke-width:0.5;" width="150.4095" x="483.93" y="224.0679"/><text fill="#000000" font-family="sans-serif" font-size="14" lengthAdjust="spacing" textLength="130.4095" x="493.93" y="249.0339">Configured desktop</text><text fill="#000000" font-family="sans-serif" font-size="14" lengthAdjust="spacing" textLength="73.1917" x="493.93" y="268.1018">commands</text></g><!--entity Outcome--><g class="entity" data-entity="Outcome" data-source-line="17" data-uid="ent0011" id="entity_Outcome"><rect fill="#F1F1F1" height="58.1358" rx="2.5" ry="2.5" style="stroke:#181818;stroke-width:0.5;" width="150.3255" x="694.33" y="224.0679"/><text fill="#000000" font-family="sans-serif" font-size="14" lengthAdjust="spacing" textLength="130.3255" x="704.33" y="249.0339">A compact personal</text><text fill="#000000" font-family="sans-serif" font-size="14" lengthAdjust="spacing" textLength="60.6338" x="704.33" y="268.1018">workflow</text></g><!--link User to Input--><g class="link" data-entity-1="User" data-entity-2="Input" data-source-line="19" data-uid="lnk12" id="link_User_Input"><path d="M37.07,274.6079 C64.02,244.4179 117.1231,184.9528 146.1431,152.4628" fill="none" id="User-to-Input" style="stroke:#181818;stroke-width:1;"/><polygon fill="#181818" points="150.14,147.9879,141.1613,152.0356,146.8092,151.717,147.1278,157.3648,150.14,147.9879" style="stroke:#181818;stroke-width:1;"/></g><!--link User to Keys--><g class="link" data-entity-1="User" data-entity-2="Keys" data-source-line="20" data-uid="lnk13" id="link_User_Keys"><path d="M37.09,288.7479 C52.06,286.3779 75.91,282.7279 96.62,280.1379 C179.26,269.8079 270.824,261.1544 321.174,256.6344" fill="none" id="User-to-Keys" style="stroke:#181818;stroke-width:1;"/><polygon fill="#181818" points="327.15,256.0979,317.8284,252.9186,322.17,256.545,318.5437,260.8866,327.15,256.0979" style="stroke:#181818;stroke-width:1;"/></g><!--link User to Encoder--><g class="link" data-entity-1="User" data-entity-2="Encoder" data-source-line="21" data-uid="lnk14" id="link_User_Encoder"><path d="M36.86,292.6879 C86.63,297.9779 245.0137,314.8033 318.7237,322.6433" fill="none" id="User-to-Encoder" style="stroke:#181818;stroke-width:1;"/><polygon fill="#181818" points="324.69,323.2779,316.1635,318.3485,319.718,322.7491,315.3174,326.3036,324.69,323.2779" style="stroke:#181818;stroke-width:1;"/></g><!--link User to Touch--><g class="link" data-entity-1="User" data-entity-2="Touch" data-source-line="22" data-uid="lnk15" id="link_User_Touch"><path d="M36.96,297.5079 C51.84,303.8679 75.62,313.7379 96.62,321.1379 C168.31,346.3979 246.8036,369.4253 300.5936,384.5353" fill="none" id="User-to-Touch" style="stroke:#181818;stroke-width:1;"/><polygon fill="#181818" points="306.37,386.1579,298.7871,379.873,301.5563,384.8057,296.6236,387.5749,306.37,386.1579" style="stroke:#181818;stroke-width:1;"/></g><!--link Input to Config--><g class="link" data-entity-1="Input" data-entity-2="Config" data-source-line="24" data-uid="lnk16" id="link_Input_Config"><path d="M241.58,108.6279 C261.5,103.2079 277.1,98.9612 296.2,93.7712" fill="none" id="Input-to-Config" style="stroke:#181818;stroke-width:1;"/><polygon fill="#181818" points="301.99,92.1979,292.256,90.6979,297.165,93.509,294.3538,98.4179,301.99,92.1979" style="stroke:#181818;stroke-width:1;"/></g><!--link Config to Actions--><g class="link" data-entity-1="Config" data-entity-2="Actions" data-source-line="25" data-uid="lnk17" id="link_Config_Actions"><path d="M399.54,105.6179 C413.49,117.1179 429.42,130.5379 443.52,143.1379 C473.12,169.6079 501.4166,196.8963 524.2366,219.3863" fill="none" id="Config-to-Actions" style="stroke:#181818;stroke-width:1;"/><polygon fill="#181818" points="528.51,223.5979,524.9076,214.4315,524.9488,220.0882,519.2921,220.1294,528.51,223.5979" style="stroke:#181818;stroke-width:1;"/></g><!--link Keys to Actions--><g class="link" data-entity-1="Keys" data-entity-2="Actions" data-source-line="26" data-uid="lnk18" id="link_Keys_Actions"><path d="M396.56,253.1379 C420.53,253.1379 447.73,253.1379 477.8,253.1379" fill="none" id="Keys-to-Actions" style="stroke:#181818;stroke-width:1;"/><polygon fill="#181818" points="483.8,253.1379,474.8,249.1379,478.8,253.1379,474.8,257.1379,483.8,253.1379" style="stroke:#181818;stroke-width:1;"/></g><!--link Encoder to Actions--><g class="link" data-entity-1="Encoder" data-entity-2="Actions" data-source-line="27" data-uid="lnk19" id="link_Encoder_Actions"><path d="M399.26,313.3879 C422.95,304.4079 449.1498,294.4653 478.0798,283.4953" fill="none" id="Encoder-to-Actions" style="stroke:#181818;stroke-width:1;"/><polygon fill="#181818" points="483.69,281.3679,473.8565,280.8188,479.0148,283.1407,476.6929,288.2991,483.69,281.3679" style="stroke:#181818;stroke-width:1;"/></g><!--link Touch to Actions--><g class="link" data-entity-1="Touch" data-entity-2="Actions" data-source-line="28" data-uid="lnk20" id="link_Touch_Actions"><path d="M413.41,381.1679 C423.72,376.2079 434.25,370.4779 443.52,364.1379 C477.81,340.6779 507.2411,311.0531 529.0711,286.8531" fill="none" id="Touch-to-Actions" style="stroke:#181818;stroke-width:1;"/><polygon fill="#181818" points="533.09,282.3979,524.0916,286.4014,529.7409,286.1106,530.0318,291.7599,533.09,282.3979" style="stroke:#181818;stroke-width:1;"/></g><!--link Actions to LEDs--><g class="link" data-entity-1="Actions" data-entity-2="LEDs" data-source-line="29" data-uid="lnk21" id="link_Actions_LEDs"><path d="M483.68,224.8979 C461.07,216.3279 442.3109,209.2035 421.4309,201.2935" fill="none" id="Actions-to-LEDs" style="stroke:#181818;stroke-width:1;"/><polygon fill="#181818" points="415.82,199.1679,422.8193,206.0969,420.4957,200.9392,425.6534,198.6157,415.82,199.1679" style="stroke:#181818;stroke-width:1;"/></g><!--link Actions to Outcome--><g class="link" data-entity-1="Actions" data-entity-2="Outcome" data-source-line="30" data-uid="lnk22" id="link_Actions_Outcome"><path d="M634.77,253.1379 C654.03,253.1379 668.77,253.1379 688.03,253.1379" fill="none" id="Actions-to-Outcome" style="stroke:#181818;stroke-width:1;"/><polygon fill="#181818" points="694.03,253.1379,685.03,249.1379,689.03,253.1379,685.03,257.1379,694.03,253.1379" style="stroke:#181818;stroke-width:1;"/></g><!--SRC=[PL5DJyCm3BtdLrWzRnU4n0rfm0w8IN00yQ5TiiJjegPnvIGQ4-A_axdTr8fJd9VtxEUNv997-FZyWdVY5kv8imM-WZxll3FGCzbi4k1tZ-mm65JAOvqW4R1hzWciOpJ9KL1AcqGCRn5PgLwRLZS8rR_M5VmeW9D8XwRChgvleCLZh417U2h5_7KT35baUHthEU6Lijc3eP2OlD04cPCswmUe4Usks19E0QBwLMh24PSRocK2F8O-9o5ADQMzCDNEOro0rqVakDW67Ine2M7Oufv2xPgfQ40oemMBiKtKRyikNLUKWsGroAUQLLcgApacADb72jflmw5uh3qTHFESKs6K7pb53ilbxMZsSfKqBxTpUXTWo4c9I83Hzt08ShPrwZG3ncOpRFY9AJAUWadYKs2q_mS0]--></g></svg>