<svg xmlns="http://www.w3.org/2000/svg" xmlns:xlink="http://www.w3.org/1999/xlink" contentStyleType="text/css" data-diagram-type="STATE" height="361px" preserveAspectRatio="none" style="width:957px;height:361px;background:#FFFFFF;" version="1.1" viewBox="0 0 957 361" width="957px" zoomAndPan="magnify"><title>USB route state machine</title><defs/><g><text fill="#000000" font-family="sans-serif" font-size="14" font-weight="bold" lengthAdjust="spacing" textLength="172.9973" x="385.3363" y="24.9659">USB route state machine</text><g id="Idle"><rect fill="#F1F1F1" height="50" rx="12.5" ry="12.5" style="stroke:#181818;stroke-width:0.5;" width="50" x="469.67" y="305.0679"/><line style="stroke:#181818;stroke-width:0.5;" x1="469.67" x2="519.67" y1="334.1358" y2="334.1358"/><text fill="#000000" font-family="sans-serif" font-size="14" lengthAdjust="spacing" textLength="24.8639" x="482.238" y="325.0339">Idle</text></g><g id="Probing"><rect fill="#F1F1F1" height="50" rx="12.5" ry="12.5" style="stroke:#181818;stroke-width:0.5;" width="72.2058" x="458.57" y="47.0679"/><line style="stroke:#181818;stroke-width:0.5;" x1="458.57" x2="530.7758" y1="76.1358" y2="76.1358"/><text fill="#000000" font-family="sans-serif" font-size="14" lengthAdjust="spacing" textLength="52.2058" x="468.57" y="67.0339">Probing</text></g><g id="Active"><rect fill="#F1F1F1" height="50" rx="12.5" ry="12.5" style="stroke:#181818;stroke-width:0.5;" width="59.3398" x="7" y="176.0679"/><line style="stroke:#181818;stroke-width:0.5;" x1="7" x2="66.3398" y1="205.1358" y2="205.1358"/><text fill="#000000" font-family="sans-serif" font-size="14" lengthAdjust="spacing" textLength="39.3398" x="17" y="196.0339">Active</text></g><ellipse cx="941.67" cy="201.0679" fill="#222222" rx="10" ry="10" style="stroke:#222222;stroke-width:1;"/><g class="entity" data-entity="GMN2" data-source-line="17" data-uid="ent0003" id="entity_GMN2"><path d="M566.25,49.3579 L566.25,68.0679 L531.08,72.0679 L566.25,76.0679 L566.25,94.7699 A0,0 0 0 0 566.25,94.7699 L785.0842,94.7699 A0,0 0 0 0 785.0842,94.7699 L785.0842,59.3579 L775.0842,49.3579 L566.25,49.3579 A0,0 0 0 0 566.25,49.3579" fill="#FEFFDD" style="stroke:#181818;stroke-width:0.5;"/><path d="M775.0842,49.3579 L775.0842,59.3579 L785.0842,59.3579 L775.0842,49.3579" fill="#FEFFDD" style="stroke:#181818;stroke-width:0.5;"/><text fill="#000000" font-family="sans-serif" font-size="13" lengthAdjust="spacing" textLength="107.2241" x="572.25" y="68.2549">USB is presented,</text><text fill="#000000" font-family="sans-serif" font-size="13" lengthAdjust="spacing" textLength="197.8342" x="572.25" y="85.9609">but the route is not yet adopted.</text></g><g class="entity" data-entity="GMN5" data-source-line="22" data-uid="ent0006" id="entity_GMN5"><path d="M100.88,178.3579 L100.88,197.0679 L66.82,201.0679 L100.88,205.0679 L100.88,223.7699 A0,0 0 0 0 100.88,223.7699 L304.4522,223.7699 A0,0 0 0 0 304.4522,223.7699 L304.4522,188.3579 L294.4522,178.3579 L100.88,178.3579 A0,0 0 0 0 100.88,178.3579" fill="#FEFFDD" style="stroke:#181818;stroke-width:0.5;"/><path d="M294.4522,178.3579 L294.4522,188.3579 L304.4522,188.3579 L294.4522,178.3579" fill="#FEFFDD" style="stroke:#181818;stroke-width:0.5;"/><text fill="#000000" font-family="sans-serif" font-size="13" lengthAdjust="spacing" textLength="182.5722" x="106.88" y="197.2549">The transition closes the state</text><text fill="#000000" font-family="sans-serif" font-size="13" lengthAdjust="spacing" textLength="132.0931" x="106.88" y="214.9609">of the previous route.</text></g><!--link *start* to Idle--><g class="link" data-entity-1="*start*" data-entity-2="Idle" data-source-line="3" data-uid="lnk3" id="link_*start*_Idle"><path d="M934.08,208.1979 C915.92,222.5179 867.97,258.2479 821.67,275.0679 C714.05,314.1679 582.1418,324.7937 526.0718,327.7337" fill="none" id="*start*-to-Idle" style="stroke:#181818;stroke-width:1;"/><polygon fill="#181818" points="520.08,328.0479,529.2771,331.5712,525.0731,327.7861,528.8582,323.5821,520.08,328.0479" style="stroke:#181818;stroke-width:1;"/></g><!--link Idle to Probing--><g class="link" data-entity-1="Idle" data-entity-2="Probing" data-source-line="4" data-uid="lnk4" id="link_Idle_Probing"><path d="M519.98,324.9179 C590.21,312.1579 779.37,268.6179 733.67,176.0679 C694.08,95.9079 633.23,126.0879 548.67,97.0679 C542.94,95.1079 542.5196,95.0967 536.7496,92.6667" fill="none" id="Idle-to-Probing" style="stroke:#181818;stroke-width:1;"/><polygon fill="#181818" points="531.22,90.3379,537.9619,97.5175,535.828,92.2786,541.067,90.1447,531.22,90.3379" style="stroke:#181818;stroke-width:1;"/><text fill="#000000" font-family="sans-serif" font-size="13" lengthAdjust="spacing" textLength="99.0861" x="741.7" y="206.4649">VBUS confirmed</text></g><!--link Probing to Idle--><g class="link" data-entity-1="Probing" data-entity-2="Idle" data-source-line="6" data-uid="lnk6" id="link_Probing_Idle"><path d="M462.61,97.5579 C440.84,116.3379 413.87,144.3579 401.67,176.0679 C393.69,196.8079 393.69,205.3279 401.67,226.0679 C415.16,261.1479 442.1104,287.9135 464.7204,306.4535" fill="none" id="Probing-to-Idle" style="stroke:#181818;stroke-width:1;"/><polygon fill="#181818" points="469.36,310.2579,464.9369,301.4582,465.4936,307.0875,459.8643,307.6443,469.36,310.2579" style="stroke:#181818;stroke-width:1;"/><text fill="#000000" font-family="sans-serif" font-size="13" lengthAdjust="spacing" textLength="48.1261" x="402.67" y="206.4649">timeout</text></g><!--link Probing to Idle--><g class="link" data-entity-1="Probing" data-entity-2="Idle" data-source-line="7" data-uid="lnk7" id="link_Probing_Idle"><path d="M494.67,97.1479 C494.67,145.9479 494.67,249.9679 494.67,298.8579" fill="none" id="Probing-to-Idle-1" style="stroke:#181818;stroke-width:1;"/><polygon fill="#181818" points="494.67,304.8579,498.67,295.8579,494.67,299.8579,490.67,295.8579,494.67,304.8579" style="stroke:#181818;stroke-width:1;"/><text fill="#000000" font-family="sans-serif" font-size="13" lengthAdjust="spacing" textLength="77.8441" x="495.67" y="206.4649">VBUS absent</text></g><!--link Probing to Idle--><g class="link" data-entity-1="Probing" data-entity-2="Idle" data-source-line="8" data-uid="lnk8" id="link_Probing_Idle"><path d="M523.84,97.1779 C544.37,116.1779 570.17,144.6279 581.67,176.0679 C589.3,196.9379 589.3,205.1979 581.67,226.0679 C569.45,259.4779 545.5336,285.5183 524.4936,304.4183" fill="none" id="Probing-to-Idle-2" style="stroke:#181818;stroke-width:1;"/><polygon fill="#181818" points="520.03,308.4279,529.3984,305.3893,523.7496,305.0866,524.0523,299.4379,520.03,308.4279" style="stroke:#181818;stroke-width:1;"/><text fill="#000000" font-family="sans-serif" font-size="13" lengthAdjust="spacing" textLength="80.0151" x="588.4" y="206.4649">USB disabled</text></g><!--link Probing to Active--><g class="link" data-entity-1="Probing" data-entity-2="Active" data-source-line="5" data-uid="lnk5" id="link_Probing_Active"><path d="M458.34,79.1879 C385.6,92.0779 217.57,125.1279 83.67,176.0679 C78.1,178.1879 77.7256,178.1536 72.2156,180.8336" fill="none" id="Probing-to-Active" style="stroke:#181818;stroke-width:1;"/><polygon fill="#181818" points="66.82,183.4579,76.663,183.1184,71.3163,181.2709,73.1639,175.9243,66.82,183.4579" style="stroke:#181818;stroke-width:1;"/><text fill="#000000" font-family="sans-serif" font-size="13" lengthAdjust="spacing" textLength="75.5951" x="239.94" y="141.9649">fresh mount</text></g><!--link Active to Idle--><g class="link" data-entity-1="Active" data-entity-2="Idle" data-source-line="9" data-uid="lnk9" id="link_Active_Idle"><path d="M50.75,226.5579 C61.62,243.0979 78.25,263.8879 98.67,275.0679 C163.18,310.3979 386.427,323.9587 463.317,327.6687" fill="none" id="Active-to-Idle" style="stroke:#181818;stroke-width:1;"/><polygon fill="#181818" points="469.31,327.9579,460.5132,323.5288,464.3158,327.7169,460.1277,331.5195,469.31,327.9579" style="stroke:#181818;stroke-width:1;"/><text fill="#000000" font-family="sans-serif" font-size="13" lengthAdjust="spacing" textLength="77.8441" x="99.67" y="270.9649">VBUS absent</text></g><!--link Active to Idle--><g class="link" data-entity-1="Active" data-entity-2="Idle" data-source-line="10" data-uid="lnk10" id="link_Active_Idle"><path d="M66.65,218.3579 C72.23,221.1079 78.06,223.7979 83.67,226.0679 C125.89,243.1579 138.28,242.1979 181.67,256.0679 C207.11,264.1979 212.9,268.0779 238.67,275.0679 C322.18,297.7179 417.2514,315.5145 463.4614,323.6745" fill="none" id="Active-to-Idle-1" style="stroke:#181818;stroke-width:1;"/><polygon fill="#181818" points="469.37,324.7179,461.2027,319.2138,464.4462,323.8484,459.8115,327.0919,469.37,324.7179" style="stroke:#181818;stroke-width:1;"/><text fill="#000000" font-family="sans-serif" font-size="13" lengthAdjust="spacing" textLength="108.1211" x="239.67" y="270.9649">configuration lost</text></g><!--SRC=[TL11JiGm3Bpd5ND6B0_O0n9xuuQqB1V48MtSrb8Rhn9d9NwFcmOGskLYnPxnp3ZAEXDEnmEI52LazLONtqySoRdtkm_iTezu3ZEvjTJk9Kd7SSGURuVJ4Rt4WTD2mNq3A-cfLxwGSOP4US8Y9UeVGfNRGtaXixu5LNNVPRgzkQOEd7qtctMp-sVx6gsXnvAyiaJCajMvxVXww_PifgtRH9oBOatYSLB8yCD1pSCPPxlNF2dSswmh2fse_QwXjenFKlWWP-CyE8fX7LxfDZVWrTOr-PYvHkqjA-KgMcCPmzXhQyONbf8tir_bBm00]--></g></svg>