<svg xmlns="http://www.w3.org/2000/svg" xmlns:xlink="http://www.w3.org/1999/xlink" contentStyleType="text/css" data-diagram-type="SEQUENCE" height="475px" preserveAspectRatio="none" style="width:425px;height:475px;background:#FFFFFF;" version="1.1" viewBox="0 0 425 475" width="425px" zoomAndPan="magnify"><title>Quando il mount appartiene alla sessione precedente</title><defs/><g><text fill="#000000" font-family="sans-serif" font-size="14" font-weight="bold" lengthAdjust="spacing" textLength="373.6725" x="24.6844" y="29.9659">Quando il mount appartiene alla sessione precedente</text><g><title>Host</title><rect fill="#000000" fill-opacity="0.00000" height="358.7662" width="8" x="23.3019" y="79.1358"/><line style="stroke:#181818;stroke-width:0.5;stroke-dasharray:5.0,5.0;" x1="27" x2="27" y1="79.1358" y2="437.902"/></g><g><title>Device self-powered</title><rect fill="#000000" fill-opacity="0.00000" height="358.7662" width="8" x="129.0546" y="79.1358"/><line style="stroke:#181818;stroke-width:0.5;stroke-dasharray:5.0,5.0;" x1="132.6039" x2="132.6039" y1="79.1358" y2="437.902"/></g><g><title>Stack USB</title><rect fill="#000000" fill-opacity="0.00000" height="358.7662" width="8" x="283.4447" y="79.1358"/><line style="stroke:#181818;stroke-width:0.5;stroke-dasharray:5.0,5.0;" x1="286.7199" x2="286.7199" y1="79.1358" y2="437.902"/></g><g><title>Caricatore</title><rect fill="#000000" fill-opacity="0.00000" height="358.7662" width="8" x="374.1055" y="79.1358"/><line style="stroke:#181818;stroke-width:0.5;stroke-dasharray:5.0,5.0;" x1="377.1696" x2="377.1696" y1="79.1358" y2="437.902"/></g><g class="participant participant-head" data-participant="Host"><rect fill="#E2E2F0" height="33.0679" rx="2.5" ry="2.5" style="stroke:#181818;stroke-width:0.5;" width="44.6039" x="5" y="45.0679"/><text fill="#000000" font-family="sans-serif" font-size="14" lengthAdjust="spacing" textLength="30.6039" x="12" y="67.0339">Host</text></g><g class="participant participant-tail" data-participant="Host"><rect fill="#E2E2F0" height="33.0679" rx="2.5" ry="2.5" style="stroke:#181818;stroke-width:0.5;" width="44.6039" x="5" y="436.902"/><text fill="#000000" font-family="sans-serif" font-size="14" lengthAdjust="spacing" textLength="30.6039" x="12" y="458.868">Host</text></g><g class="participant participant-head" data-participant="device"><rect fill="#E2E2F0" height="33.0679" rx="2.5" ry="2.5" style="stroke:#181818;stroke-width:0.5;" width="146.9015" x="59.6039" y="45.0679"/><text fill="#000000" font-family="sans-serif" font-size="14" lengthAdjust="spacing" textLength="132.9015" x="66.6039" y="67.0339">Device self-powered</text></g><g class="participant participant-tail" data-participant="device"><rect fill="#E2E2F0" height="33.0679" rx="2.5" ry="2.5" style="stroke:#181818;stroke-width:0.5;" width="146.9015" x="59.6039" y="436.902"/><text fill="#000000" font-family="sans-serif" font-size="14" lengthAdjust="spacing" textLength="132.9015" x="66.6039" y="458.868">Device self-powered</text></g><g class="participant participant-head" data-participant="stack"><rect fill="#E2E2F0" height="33.0679" rx="2.5" ry="2.5" style="stroke:#181818;stroke-width:0.5;" width="79.4498" x="247.7199" y="45.0679"/><text fill="#000000" font-family="sans-serif" font-size="14" lengthAdjust="spacing" textLength="65.4498" x="254.7199" y="67.0339">Stack USB</text></g><g class="participant participant-tail" data-participant="stack"><rect fill="#E2E2F0" height="33.0679" rx="2.5" ry="2.5" style="stroke:#181818;stroke-width:0.5;" width="79.4498" x="247.7199" y="436.902"/><text fill="#000000" font-family="sans-serif" font-size="14" lengthAdjust="spacing" textLength="65.4498" x="254.7199" y="458.868">Stack USB</text></g><g class="participant participant-head" data-participant="Caricatore"><rect fill="#E2E2F0" height="33.0679" rx="2.5" ry="2.5" style="stroke:#181818;stroke-width:0.5;" width="81.8717" x="337.1696" y="45.0679"/><text fill="#000000" font-family="sans-serif" font-size="14" lengthAdjust="spacing" textLength="67.8717" x="344.1696" y="67.0339">Caricatore</text></g><g class="participant participant-tail" data-participant="Caricatore"><rect fill="#E2E2F0" height="33.0679" rx="2.5" ry="2.5" style="stroke:#181818;stroke-width:0.5;" width="81.8717" x="337.1696" y="436.902"/><text fill="#000000" font-family="sans-serif" font-size="14" lengthAdjust="spacing" textLength="67.8717" x="344.1696" y="458.868">Caricatore</text></g><g class="message" data-participant-1="Host" data-participant-2="stack"><polygon fill="#181818" points="275.4447,108.8419,285.4447,112.8419,275.4447,116.8419,279.4447,112.8419" style="stroke:#181818;stroke-width:1;"/><line style="stroke:#181818;stroke-width:1;" x1="27.3019" x2="281.4447" y1="112.8419" y2="112.8419"/><text fill="#000000" font-family="sans-serif" font-size="13" lengthAdjust="spacing" textLength="128.2971" x="34.3019" y="107.0328">enumera e configura</text></g><g class="message" data-participant-1="stack" data-participant-2="device"><polygon fill="#181818" points="144.0546,140.5479,134.0546,144.5479,144.0546,148.5479,140.0546,144.5479" style="stroke:#181818;stroke-width:1;"/><line style="stroke:#181818;stroke-width:1;" x1="138.0546" x2="286.4447" y1="144.5479" y2="144.5479"/><text fill="#000000" font-family="sans-serif" font-size="13" lengthAdjust="spacing" textLength="92.8721" x="150.0546" y="138.7389">mount callback</text></g><path d="M211,157.5479 L211,184.5479 L362,184.5479 L362,167.5479 L352,157.5479 L211,157.5479" fill="#FEFFDD" style="stroke:#181818;stroke-width:0.5;"/><path d="M352,157.5479 L352,167.5479 L362,167.5479 L352,157.5479" fill="#FEFFDD" style="stroke:#181818;stroke-width:0.5;"/><text fill="#000000" font-family="sans-serif" font-size="13" lengthAdjust="spacing" textLength="130.0262" x="217" y="176.4449">tud_mounted() = true</text><g class="message" data-participant-1="Host" data-participant-2="stack"><line style="stroke:#181818;stroke-width:2;" x1="269.4447" x2="279.4447" y1="208.9599" y2="218.9599"/><line style="stroke:#181818;stroke-width:2;" x1="269.4447" x2="279.4447" y1="218.9599" y2="208.9599"/><line style="stroke:#181818;stroke-width:1;" x1="27.3019" x2="274.4447" y1="213.9599" y2="213.9599"/><text fill="#000000" font-family="sans-serif" font-size="13" lengthAdjust="spacing" textLength="80.4441" x="34.3019" y="208.1509">cavo rimosso</text></g><path d="M77,226.9599 L77,271.9599 L343,271.9599 L343,236.9599 L333,226.9599 L77,226.9599" fill="#FEFFDD" style="stroke:#181818;stroke-width:0.5;"/><path d="M333,226.9599 L333,236.9599 L343,236.9599 L333,226.9599" fill="#FEFFDD" style="stroke:#181818;stroke-width:0.5;"/><text fill="#000000" font-family="sans-serif" font-size="13" lengthAdjust="spacing" textLength="157.2221" x="83" y="245.8569">Il device resta alimentato.</text><text fill="#000000" font-family="sans-serif" font-size="13" lengthAdjust="spacing" textLength="245.3753" x="83" y="263.5629">L'evento unplug non raggiunge lo stack.</text><g class="message" data-participant-1="Caricatore" data-participant-2="device"><polygon fill="#181818" points="144.0546,297.0779,134.0546,301.0779,144.0546,305.0779,140.0546,301.0779" style="stroke:#181818;stroke-width:1;"/><line style="stroke:#181818;stroke-width:1;" x1="138.0546" x2="377.1055" y1="301.0779" y2="301.0779"/><text fill="#000000" font-family="sans-serif" font-size="13" lengthAdjust="spacing" textLength="90.5841" x="150.0546" y="295.2689">VBUS presente</text></g><g class="message" data-participant-1="device" data-participant-2="stack"><polygon fill="#181818" points="275.4447,328.784,285.4447,332.784,275.4447,336.784,279.4447,332.784" style="stroke:#181818;stroke-width:1;"/><line style="stroke:#181818;stroke-width:1;" x1="133.0546" x2="281.4447" y1="332.784" y2="332.784"/><text fill="#000000" font-family="sans-serif" font-size="13" lengthAdjust="spacing" textLength="82.7581" x="140.0546" y="326.975">legge lo stato</text></g><g class="message" data-participant-1="stack" data-participant-2="device"><polygon fill="#181818" points="144.0546,360.49,134.0546,364.49,144.0546,368.49,140.0546,364.49" style="stroke:#181818;stroke-width:1;"/><line style="stroke:#181818;stroke-width:1;stroke-dasharray:2.0,2.0;" x1="138.0546" x2="286.4447" y1="364.49" y2="364.49"/><text fill="#000000" font-family="sans-serif" font-size="13" lengthAdjust="spacing" textLength="130.3901" x="150.0546" y="358.681">mounted ancora true</text></g><path d="M22,377.49 L22,422.49 L242,422.49 L242,387.49 L232,377.49 L22,377.49" fill="#FEFFDD" style="stroke:#181818;stroke-width:0.5;"/><path d="M232,377.49 L232,387.49 L242,387.49 L232,377.49" fill="#FEFFDD" style="stroke:#181818;stroke-width:0.5;"/><text fill="#000000" font-family="sans-serif" font-size="13" lengthAdjust="spacing" textLength="176.5402" x="28" y="396.387">Lo stato &#232; valido in memoria,</text><text fill="#000000" font-family="sans-serif" font-size="13" lengthAdjust="spacing" textLength="199.9402" x="28" y="414.093">ma non per la sessione corrente.</text><!--SRC=[NLBBJWCn3BplLrYz05BR3wW4Xy8192veLQx89Eug8ecZF1O-YV_Wnt2os-VHpdZ6CqussHAy5VIQmLXmN7m6305ZDkG9q5g4H2aPbYf4KgJ9P-gw1b4ce0mySyeNZSKJZKQHJDhzAl0tHT8Bm0IwzI-nVKRr1Rj-sn2fLXU0Hun6OUOegbK9LWyJQWFaYwE8GA3OxyrG8dRjgM8chSriIecLpqhjEHFmIF50ael-Q1ZIjtTm3pcMezBF0QHmP8Z6SKfyHZ5fBAUb0Lxit858qfFuZ9EuPFcrlBxUq2WLG_71bW4yUuWu3ARuWS3ofBNko6ke4brtidvkw7sxw-ijKhl4B7WAnT9mfCjyoECw4DA0Nh64r_nUMwhhpWpmzmkZEAbVn8CZnz7WKW0EcuKWG-U_H4XZtUnav1y0]--></g></svg>