<svg xmlns="http://www.w3.org/2000/svg" viewBox="0 0 264.58332 264.58333" width="1000" height="1000">
  <path fill="currentColor" d="m 94.372922,247.09093 c -3.001546,-1.20901 -3.264825,-2.52592 -3.464751,-17.33037 -0.217661,-16.12119 1.010482,-14.39392 -10.067177,-14.15832 -12.053429,0.2564 -12.76027,-0.74958 -13.178986,-18.75651 -0.282309,-12.1392 -0.282309,-12.1392 -4.516909,-12.29813 -7.162915,-0.26882 -7.950607,-5.03878 -1.668775,-10.1054 2.799639,-2.25801 10.777288,-10.85837 13.535372,-14.59182 3.671909,-4.97052 6.670064,-5.42109 8.909094,-1.33881 0.529044,0.96464 3.221629,5.22047 5.983548,9.4575 9.416408,14.44553 9.226586,17.01977 -1.254961,17.01977 -5.742802,0 -5.742802,0 -5.742802,6.98857 0,9.38449 1.975357,10.47933 10.393688,5.76063 24.761417,-13.8795 43.450747,-60.66176 34.722557,-86.91595 -3.56327,-10.71828 -4.61605,-10.52456 -18.79667,3.45855 -16.848287,16.61375 -20.313384,16.76117 -38.144221,1.62315 -3.637694,-3.08838 -3.637694,-3.08838 -8.681897,0.81536 -5.072207,3.92548 -6.29166,4.40794 -8.352952,3.30478 -1.718569,-0.91974 -2.337443,-3.1996 -2.245807,-8.27322 0.10514,-5.81884 -0.624122,-7.62883 -4.995982,-12.399982 -8.704931,-9.4999 -7.389609,-13.3976 3.982503,-11.801214 11.35472,1.593907 18.003439,5.741722 18.003439,11.231571 0,2.220685 1.897667,4.032075 10.502266,10.024545 11.877218,8.27171 12.552209,8.20989 22.398231,-2.04977 7.60845,-7.928191 13.6038,-12.852639 18.36823,-15.087381 3.45939,-1.622577 3.54866,-1.718787 3.19114,-3.437021 -1.11748,-5.370664 -3.32738,-6.175689 -9.06166,-3.301016 -15.192449,7.616175 -29.760497,9.078928 -31.519269,3.164718 -0.579012,-1.947015 1.294661,-3.498574 6.387754,-5.289644 19.776665,-6.954851 25.849835,-19.903307 22.382755,-47.721595 -1.69971,-13.637962 -0.67105,-19.131485 3.39146,-18.111849 1.85527,0.465639 2.89524,2.216223 4.25748,7.166414 6.20341,22.542652 19.02116,32.514916 34.39366,26.758342 6.19879,-2.321297 8.60766,-2.457367 10.47342,-0.591601 4.55959,4.55965 -4.42347,13.29174 -22.68036,22.046696 -6.63094,3.179848 -6.95266,4.406694 -2.48882,9.490703 4.04416,4.606004 7.0859,3.98939 17.80115,-3.608504 16.43037,-11.650408 24.87624,-13.347578 36.51751,-7.338171 3.73344,1.927255 6.92776,3.364479 7.09838,3.193852 0.17067,-0.170683 0.80259,-1.775653 1.40425,-3.566607 2.3943,-7.127174 5.2478,-7.029214 10.47076,0.359373 1.44801,2.048362 4.31738,5.883955 6.37635,8.523523 7.94834,10.189475 7.66102,10.6922 -10.16022,17.776689 -13.31462,5.292959 -14.12364,5.460429 -16.22514,3.358879 -2.62534,-2.625277 -1.24915,-5.673007 4.94263,-10.946037 4.37078,-3.722278 4.40371,-3.136775 -0.35683,-6.354451 -13.98542,-9.452987 -17.63752,-8.813899 -38.13243,6.672994 -9.69159,7.323438 -9.02456,6.265128 -7.78947,12.358774 9.28304,45.80004 -5.35247,86.59598 -37.99935,105.9217 -4.89514,2.89776 -4.89514,2.89776 -5.28178,7.53934 -0.51544,6.18794 -0.36745,6.76361 1.79264,6.97404 5.91676,0.57642 23.98288,-8.34137 23.08999,-11.39774 -3.25031,-11.12593 -0.61757,-13.3303 15.92465,-13.33318 16.43009,-0.006 18.08226,1.5113 10.07468,9.23353 -4.45187,4.2932 -5.40731,6.22559 -5.41351,10.94927 -0.008,5.96107 -5.03377,6.22768 -10.15639,0.53886 -1.42129,-1.5785 -1.42129,-1.5785 -21.05783,13.07764 -21.908764,16.35212 -23.100828,17.01993 -27.334638,15.31453 z" />
</svg>
