<svg xmlns="http://www.w3.org/2000/svg" viewBox="0 0 264.58332 264.58333" width="1000" height="1000">
  <path fill="currentColor" d="M 55.716383,218.70843 C 10.404008,201.00448 4.9531486,100.65611 47.173891,61.445069 c 3.252795,-3.020828 8.31953,-6.898869 9.614659,-7.729127 36.591294,-26.055341 84.34015,1.76973 116.06147,67.633398 2.94984,6.12488 6.87865,14.29131 8.73063,18.14772 9.7631,20.32977 15.49827,25.4431 22.58541,20.13669 11.58308,-8.67265 9.71233,-27.18092 -5.91241,-58.49442 -13.51452,-27.084432 -11.56308,-41.277505 6.8332,-49.699601 27.38887,-12.539054 44.28277,19.568262 40.57819,77.119951 -6.10974,94.91715 -59.97951,110.07496 -101.9007,28.67269 -22.58295,-43.85147 -36.19025,-55.24656 -53.171121,-44.527 -10.712754,6.76266 -11.749382,16.30882 -5.327985,49.06395 6.380177,32.54457 6.566995,39.70988 1.253757,48.08795 -5.991974,9.44845 -19.407462,13.30334 -30.802608,8.85116 z" />
</svg>
